<svg xmlns="http://www.w3.org/2000/svg" viewBox="0 0 64 64" width="64" height="64">
  <defs>
    <linearGradient id="faviconGradient" x1="0%" y1="0%" x2="100%" y2="100%">
      <stop offset="0%" style="stop-color:#2563EB"/>
      <stop offset="100%" style="stop-color:#1D4ED8"/>
    </linearGradient>
  </defs>
  <rect width="64" height="64" rx="16" fill="url(#faviconGradient)"/>
  
  <g transform="translate(12, 28) scale(0.8)">
    <path d="M20 28h12l8 10h16a4 4 0 004-4v-16a4 4 0 00-4-4h-20a4 4 0 00-4 4z" fill="white" opacity="0.95"/>
    <path d="M32 38h8a2 2 0 002-2v-8a2 2 0 00-2-2h-8a2 2 0 00-2 2v8a2 2 0 002 2z" fill="white" opacity="0.8"/>
    <path d="M36 38a2 2 0 100 4h4a2 2 0 100-4z" fill="white" opacity="0.6"/>
  </g>
</svg>
